<?xml version="1.0" encoding="utf-8"?>
<!-- Generator: Adobe Illustrator 24.1.1, SVG Export Plug-In . SVG Version: 6.00 Build 0)  -->
<svg version="1.1" id="Warstwa_1" xmlns="http://www.w3.org/2000/svg" xmlns:xlink="http://www.w3.org/1999/xlink" x="0px" y="0px"
	 viewBox="0 0 903.5 373.8" style="enable-background:new 0 0 903.5 373.8;" xml:space="preserve">
<style type="text/css">
	.st0{fill:#222222;}
	.st1{fill:#009247;}
</style>
<g>
	<g>
		<g>
			<path class="st0" d="M242.4,169.4h-32.3v-16.6h82.7v16.6h-32.3v85.3h-18.1V169.4z"/>
			<path class="st0" d="M290.8,204v-0.3c0-28.7,22.1-52.7,53.4-52.7s53.2,23.7,53.2,52.4v0.3c0,28.7-22.1,52.7-53.4,52.7
				C312.6,256.5,290.8,232.7,290.8,204z M378.6,204v-0.3c0-19.8-14.4-36.3-34.7-36.3c-20.2,0-34.4,16.2-34.4,36v0.3
				c0,19.8,14.4,36.1,34.7,36.1C364.5,239.9,378.6,223.8,378.6,204z"/>
			<path class="st0" d="M403.6,204v-0.3c0-28.7,22.1-52.7,53.4-52.7s53.2,23.7,53.2,52.4v0.3c0,28.7-22.1,52.7-53.4,52.7
				C425.5,256.5,403.6,232.7,403.6,204z M491.4,204v-0.3c0-19.8-14.4-36.3-34.7-36.3c-20.2,0-34.4,16.2-34.4,36v0.3
				c0,19.8,14.4,36.1,34.7,36.1C477.3,239.9,491.4,223.8,491.4,204z"/>
			<path class="st0" d="M521,152.8h17.9v85.6h53.6v16.3H521V152.8z"/>
		</g>
		<g>
			<path class="st0" d="M605,239.9l5-5.7c11.2,10.3,21.6,15.1,36.5,15.1c15.3,0,25.8-8.6,25.8-20.2v-0.3c0-10.8-5.7-17-28.8-21.7
				c-24.5-5-34.4-13.3-34.4-28.7v-0.3c0-15.1,13.8-26.8,32.8-26.8c14.9,0,24.6,4.1,34.9,12.4l-4.8,6c-9.6-8.3-19.2-11.5-30.4-11.5
				c-15,0-24.9,8.6-24.9,19.2v0.3c0,10.8,5.5,17.3,29.7,22.3c23.6,4.8,33.5,13.3,33.5,28.1v0.3c0,16.5-14.1,27.8-33.8,27.8
				C629.7,256.2,617.2,250.8,605,239.9z"/>
			<path class="st0" d="M693.8,152.8h72.5v7h-64.9v40h58.4v7h-58.4v40.9H767v7h-73.2V152.8z"/>
			<path class="st0" d="M808.7,159.8h-35.5v-7h78.6v7h-35.5v94.9h-7.6V159.8z"/>
		</g>
	</g>
	<g>
		<path class="st0" d="M169.6,83h29.5L97.8,294.8H68.3L169.6,83z"/>
	</g>
	<g>
		<polygon class="st1" points="120.1,144.5 73.8,52 51.8,52 109.3,166.9 		"/>
		<polygon class="st1" points="145.1,238.3 195.5,338.7 217.4,338.7 155.9,215.9 		"/>
	</g>
</g>
</svg>
