<?xml version="1.0" encoding="utf-8"?>
<!-- Generator: Adobe Illustrator 24.1.1, SVG Export Plug-In . SVG Version: 6.00 Build 0)  -->
<svg version="1.1" id="Warstwa_1" xmlns="http://www.w3.org/2000/svg" xmlns:xlink="http://www.w3.org/1999/xlink" x="0px" y="0px"
	 viewBox="0 0 511.4 511.4" style="enable-background:new 0 0 511.4 511.4;" xml:space="preserve">
<style type="text/css">
	.st0{fill:#222222;}
	.st1{fill:#009247;}
</style>
<g>
	<g>
		<g>
			<path class="st0" d="M48.9,415.1H25.7v-11.9H85v11.9H61.9v61.2h-13V415.1z"/>
			<path class="st0" d="M83.6,439.9v-0.2c0-20.6,15.9-37.8,38.3-37.8s38.1,17,38.1,37.6v0.2c0,20.6-15.9,37.8-38.3,37.8
				C99.2,477.5,83.6,460.5,83.6,439.9z M146.5,439.9v-0.2c0-14.2-10.3-26-24.8-26s-24.6,11.6-24.6,25.8v0.2
				c0,14.2,10.3,25.9,24.8,25.9C136.4,465.6,146.5,454.1,146.5,439.9z"/>
			<path class="st0" d="M164.4,439.9v-0.2c0-20.6,15.9-37.8,38.3-37.8s38.1,17,38.1,37.6v0.2c0,20.6-15.9,37.8-38.3,37.8
				C180.1,477.5,164.4,460.5,164.4,439.9z M227.4,439.9v-0.2c0-14.2-10.3-26-24.8-26S178,425.3,178,439.5v0.2
				c0,14.2,10.3,25.9,24.8,25.9C217.2,465.6,227.4,454.1,227.4,439.9z"/>
			<path class="st0" d="M248.5,403.2h12.8v61.4h38.4v11.7h-51.2L248.5,403.2L248.5,403.2z"/>
		</g>
		<g>
			<path class="st0" d="M308.7,465.6l3.5-4.1c8,7.4,15.4,10.9,26.2,10.9c11,0,18.5-6.2,18.5-14.5v-0.2c0-7.7-4.1-12.2-20.7-15.6
				c-17.5-3.5-24.6-9.5-24.6-20.6v-0.2c0-10.9,9.9-19.2,23.5-19.2c10.6,0,17.6,2.9,25,8.9l-3.4,4.3c-6.9-5.9-13.8-8.2-21.8-8.2
				c-10.7,0-17.8,6.2-17.8,13.8v0.2c0,7.7,4,12.4,21.3,16c16.9,3.4,24,9.5,24,20.1v0.2c0,11.8-10.1,19.9-24.2,19.9
				C326.5,477.3,317.5,473.4,308.7,465.6z"/>
			<path class="st0" d="M372.4,403.2h52v5h-46.5v28.7h41.8v5h-41.8v29.3H425v5h-52.5v-73H372.4z"/>
			<path class="st0" d="M454.7,408.2h-25.5v-5h56.4v5h-25.5v68h-5.4V408.2z"/>
		</g>
	</g>
	<g>
		<g>
			<path class="st0" d="M285.1,68.8h33.2l-113.8,238h-33.2L285.1,68.8z"/>
		</g>
		<g>
			<polygon class="st1" points="229.5,137.9 177.4,33.9 152.7,33.9 217.4,163 			"/>
			<polygon class="st1" points="257.6,243.2 314.2,356.1 338.9,356.1 269.7,218.1 			"/>
		</g>
	</g>
</g>
</svg>
